<?xml version="1.0" encoding="UTF-8"?>
<svg viewBox="0 0 17 20" version="1.1" xmlns="http://www.w3.org/2000/svg" xmlns:xlink="http://www.w3.org/1999/xlink" fill-rule="evenodd" clip-rule="evenodd" stroke-linejoin="round">
  <path d="M8.495.633a.57.57 0 01.641-.568c3.911.527 6.866 3.88 6.866 7.934a8.005 8.005 0 01-11.859 7.01l-.112-.056V19a.997.997 0 01-1 1H1a.997.997 0 01-1-1V7.352a.286.286 0 01.458-.227l5.308 4.017a3.858 3.858 0 006.092-3.143c0-1.828-1.207-3.36-2.914-3.757a.568.568 0 01-.444-.554L8.495.633z" fill="#fff"></path>
  <path d="M1.826 2.596a.572.572 0 00.804-.14C3.492 1.251 5.107.264 6.85.005a.572.572 0 01.648.564L7.5 3.688c0 .268-.186.5-.448.558-1.708.393-2.909 1.925-2.909 3.753a.422.422 0 01-.676.338L.229 5.897a.572.572 0 01-.227-.457L0 1.841a.286.286 0 01.453-.232l1.373.987z" fill="#a9ff8a"></path>
</svg>
