<?xml version="1.0" standalone="no"?>
<!DOCTYPE svg PUBLIC "-//W3C//DTD SVG 20010904//EN"
 "http://www.w3.org/TR/2001/REC-SVG-20010904/DTD/svg10.dtd">
<svg version="1.0" xmlns="http://www.w3.org/2000/svg"
 width="224.000000pt" height="224.000000pt" viewBox="0 0 224.000000 224.000000"
 preserveAspectRatio="xMidYMid meet">

<g transform="translate(0.000000,224.000000) scale(0.100000,-0.100000)"
fill="#000000" stroke="none">
<path d="M1185 2206 c-25 -25 -25 -26 -25 -210 0 -214 3 -221 96 -251 130 -41
236 -155 274 -294 16 -59 13 -175 -5 -235 -62 -203 -277 -335 -483 -297 -37 7
-88 23 -115 37 -26 13 -185 128 -353 254 -219 166 -311 230 -327 228 l-22 -3
-3 -668 c-2 -744 -4 -725 62 -752 50 -21 295 -21 336 0 59 30 60 37 60 297 0
158 3 238 10 238 6 0 27 -8 48 -19 171 -85 429 -105 627 -46 310 91 542 338
622 661 25 103 23 305 -5 410 -41 161 -122 301 -239 416 -79 79 -116 107 -198
153 -68 38 -216 90 -287 100 -42 5 -51 3 -73 -19z"/>
</g>
</svg>
